<svg xmlns="http://www.w3.org/2000/svg" width="26.665" height="33.656" viewBox="0 0 26.665 33.656"><defs><style>.a{fill:#091a59;}</style></defs><g transform="translate(-0.5)"><path class="a" d="M18.637.26A.814.814,0,0,0,18.052,0H4.922A4.441,4.441,0,0,0,.5,4.414V29.242a4.441,4.441,0,0,0,4.422,4.414h17.82a4.441,4.441,0,0,0,4.422-4.414V9.528a.875.875,0,0,0-.236-.569Zm.236,2.61L24.425,8.7H20.816a1.936,1.936,0,0,1-1.943-1.935Zm3.87,29.16H4.922a2.816,2.816,0,0,1-2.8-2.789V4.414a2.816,2.816,0,0,1,2.8-2.788H17.247V6.764a3.556,3.556,0,0,0,3.569,3.561h4.723V29.242A2.81,2.81,0,0,1,22.742,32.03Zm0,0"/><path class="a" d="M103.366,401.934H89.985a.813.813,0,1,0,0,1.626h13.389a.813.813,0,1,0-.008-1.626Zm0,0" transform="translate(-82.843 -375.513)"/><path class="a" d="M119.8,176.776l3.349-3.6v8.877a.813.813,0,0,0,1.626,0v-8.877l3.349,3.6a.811.811,0,0,0,1.187-1.106l-4.764-5.113a.807.807,0,0,0-1.187,0l-4.764,5.113a.81.81,0,0,0,.041,1.146A.829.829,0,0,0,119.8,176.776Zm0,0" transform="translate(-110.133 -159.103)"/></g></svg>