<svg xmlns="http://www.w3.org/2000/svg" width="14.437" height="14.437" viewBox="0 0 14.437 14.437">
  <g id="edit" transform="translate(0 -0.004)">
    <g id="Group_242" data-name="Group 242" transform="translate(0 1.035)">
      <g id="Group_241" data-name="Group 241">
        <path id="Path_144" data-name="Path 144" d="M11.858,40.324a.516.516,0,0,0-.516.516V46a.516.516,0,0,1-.516.516H1.547A.516.516,0,0,1,1.031,46V35.684a.516.516,0,0,1,.516-.516H7.734a.516.516,0,1,0,0-1.031H1.547A1.547,1.547,0,0,0,0,35.684V46a1.547,1.547,0,0,0,1.547,1.547h9.281A1.547,1.547,0,0,0,12.374,46V40.84A.516.516,0,0,0,11.858,40.324Z" transform="translate(0 -34.137)" fill="#091a59"/>
      </g>
    </g>
    <g id="Group_244" data-name="Group 244" transform="translate(3.094 0.004)">
      <g id="Group_243" data-name="Group 243" transform="translate(0 0)">
        <path id="Path_145" data-name="Path 145" d="M113.174.582a1.974,1.974,0,0,0-2.792,0l-6.791,6.791a.521.521,0,0,0-.124.2l-1.031,3.094a.516.516,0,0,0,.489.679.524.524,0,0,0,.163-.026l3.094-1.031a.516.516,0,0,0,.2-.125l6.791-6.791A1.974,1.974,0,0,0,113.174.582Zm-.729,2.063-6.7,6.7-2,.669.667-2,6.705-6.7a.942.942,0,1,1,1.333,1.331Z" transform="translate(-102.409 -0.004)" fill="#091a59"/>
      </g>
    </g>
  </g>
</svg>
