<svg xmlns="http://www.w3.org/2000/svg" xmlns:xlink="http://www.w3.org/1999/xlink" width="48" height="48" viewBox="0 0 48 48"><defs><style>.a,.d{fill:#fff;}.b{opacity:0.15;}.c{clip-path:url(#a);}.d{stroke:#fff;stroke-width:0.2px;}</style><clipPath id="a"><circle class="a" cx="24" cy="24" r="24"/></clipPath></defs><g transform="translate(-1051.37 -201)"><g class="b" transform="translate(1051.37 201)"><circle class="a" cx="24" cy="24" r="24"/></g><g transform="translate(1067.5 216)"><path class="d" d="M11.487,15.747H.923A.924.924,0,0,1,0,14.824V6.348A.348.348,0,0,1,.348,6H13.576a.348.348,0,0,1,.348.348V9.133a.348.348,0,0,1-.7,0V6.7H.7v8.127a.227.227,0,0,0,.227.227H11.487a.348.348,0,1,1,0,.7Z" transform="translate(0 -1.823)"/><path class="d" d="M13.576,4.873a.347.347,0,0,1-.3-.18L11.168.877a.346.346,0,0,0-.3-.18H3.06a.346.346,0,0,0-.3.18L.653,4.693a.348.348,0,1,1-.61-.336L2.146.541A1.042,1.042,0,0,1,3.06,0h7.8a1.043,1.043,0,0,1,.915.54l2.1,3.817a.349.349,0,0,1-.3.517Z" transform="translate(0 0)"/><path class="d" d="M9.848,4.873A.348.348,0,0,1,9.5,4.525V.348a.348.348,0,0,1,.7,0V4.525A.348.348,0,0,1,9.848,4.873Z" transform="translate(-2.886)"/><path class="d" d="M20.918,21.266a.348.348,0,0,1-.348-.348V19.525A3.834,3.834,0,0,0,16.74,15.7H15.348a.348.348,0,1,1,0-.7H16.74a4.53,4.53,0,0,1,4.525,4.525v1.392A.348.348,0,0,1,20.918,21.266Z" transform="translate(-4.557 -4.557)"/><path class="d" d="M17.785,16.874a.346.346,0,0,1-.226-.084L15.122,14.7a.347.347,0,0,1,0-.528l2.437-2.089a.348.348,0,1,1,.453.528l-2.128,1.824,2.128,1.825a.347.347,0,0,1-.227.612Z" transform="translate(-4.557 -3.646)"/></g></g></svg>