<svg xmlns="http://www.w3.org/2000/svg" width="60" height="60.219" viewBox="0 0 60 60.219"><defs><style>.a{fill:#ebebeb;}.b{fill:#f7c137;}</style></defs><g transform="translate(-480 -602.5)"><path class="a" d="M30,60A30.008,30.008,0,0,1,18.323,2.358,30.008,30.008,0,0,1,41.677,57.642,29.811,29.811,0,0,1,30,60ZM30,6A24,24,0,1,0,54,30,24.027,24.027,0,0,0,30,6Z" transform="translate(480 602.5)"/><path class="b" d="M16.865,60A29.915,29.915,0,0,1,0,54.818l3.38-4.974A24,24,0,1,0,16.865,6V0A30.008,30.008,0,0,1,28.543,57.642,29.8,29.8,0,0,1,16.865,60Z" transform="translate(492.848 602.718)"/></g></svg>