<svg xmlns="http://www.w3.org/2000/svg" width="60" height="60" viewBox="0 0 60 60"><defs><style>.a{fill:#ebebeb;}.b{fill:#2e5bff;}</style></defs><g transform="translate(-166 -602.5)"><path class="a" d="M30,60A30.008,30.008,0,0,1,18.323,2.358,30.008,30.008,0,0,1,41.677,57.642,29.811,29.811,0,0,1,30,60ZM30,6A24,24,0,1,0,54,30,24.027,24.027,0,0,0,30,6Z" transform="translate(166 602.5)"/><path class="b" d="M7.712,59h0L6.168,53.2A24.03,24.03,0,0,0,24,30,24.026,24.026,0,0,0,0,6V0A29.819,29.819,0,0,1,11.678,2.358a29.892,29.892,0,0,1,9.536,6.429,29.9,29.9,0,0,1,6.43,9.535A29.816,29.816,0,0,1,30,30a29.808,29.808,0,0,1-2.357,11.676,29.911,29.911,0,0,1-6.43,9.536,29.887,29.887,0,0,1-9.536,6.429A29.94,29.94,0,0,1,7.713,59Z" transform="translate(196 602.5)"/></g></svg>