<svg xmlns="http://www.w3.org/2000/svg" width="11.526" height="14.191" viewBox="0 0 11.526 14.191"><defs><style>.a{fill:#eb4444;}</style></defs><g transform="translate(0.003 0.001)"><path class="a" d="M222.73,154.7a.332.332,0,0,0-.332.332v6.281a.332.332,0,1,0,.665,0v-6.281A.332.332,0,0,0,222.73,154.7Zm0,0" transform="translate(-215.01 -149.563)"/><path class="a" d="M104.73,154.7a.332.332,0,0,0-.332.332v6.281a.332.332,0,0,0,.665,0v-6.281A.332.332,0,0,0,104.73,154.7Zm0,0" transform="translate(-100.931 -149.563)"/><path class="a" d="M.941,4.223v8.188a1.834,1.834,0,0,0,.487,1.265,1.637,1.637,0,0,0,1.188.513H8.9a1.636,1.636,0,0,0,1.188-.513,1.834,1.834,0,0,0,.487-1.265V4.223a1.27,1.27,0,0,0-.326-2.5h-1.7V1.311A1.305,1.305,0,0,0,7.235,0H4.284A1.305,1.305,0,0,0,2.968,1.311v.415h-1.7a1.27,1.27,0,0,0-.326,2.5Zm7.963,9.3H2.616a1.053,1.053,0,0,1-1.01-1.113V4.253H9.914v8.159A1.053,1.053,0,0,1,8.9,13.525ZM3.633,1.311A.64.64,0,0,1,4.284.663H7.235a.64.64,0,0,1,.651.648v.415H3.633ZM1.266,2.391h8.987a.6.6,0,0,1,0,1.2H1.266a.6.6,0,0,1,0-1.2Zm0,0" transform="translate(0 0)"/><path class="a" d="M163.73,154.7a.332.332,0,0,0-.332.332v6.281a.332.332,0,0,0,.665,0v-6.281A.332.332,0,0,0,163.73,154.7Zm0,0" transform="translate(-157.971 -149.563)"/></g></svg>