<svg xmlns="http://www.w3.org/2000/svg" width="32" height="35" viewBox="0 0 32 35"><defs><style>.a{fill:#bfc5d2;}.b{fill:#0073cf;stroke:#fff;stroke-miterlimit:10;stroke-width:2px;}.c{stroke:none;}.d{fill:none;}</style></defs><g transform="translate(0)"><path class="a" d="M11.363,30.491a5,5,0,0,1-1.4-2.609H.944a.935.935,0,0,1-.923-.713.893.893,0,0,1,.534-1.013c3.558-1.535,3.693-8.127,3.7-8.293V13.441a10.3,10.3,0,0,1,6.586-9.474A4.08,4.08,0,0,1,15,0a4.081,4.081,0,0,1,4.163,3.966,10.3,10.3,0,0,1,6.586,9.474v4.423c0,.167.138,6.758,3.694,8.294a.891.891,0,0,1,.535,1.012.936.936,0,0,1-.923.713H20.038a5,5,0,0,1-1.4,2.609,5.138,5.138,0,0,1-7.275,0Z" transform="translate(0 3)"/><g transform="translate(20)"><g class="b"><circle class="c" cx="6" cy="6" r="6"/><circle class="d" cx="6" cy="6" r="5"/></g></g></g></svg>