<svg xmlns="http://www.w3.org/2000/svg" width="23" height="24" viewBox="0 0 23 24">
  <path id="Shape" d="M8.711,22.868a3.728,3.728,0,0,1-1.074-1.957H.724a.714.714,0,0,1-.707-.535.667.667,0,0,1,.409-.759c2.728-1.152,2.831-6.1,2.833-6.22V10.08A7.732,7.732,0,0,1,8.308,2.975,3.1,3.1,0,0,1,11.5,0a3.1,3.1,0,0,1,3.192,2.975,7.732,7.732,0,0,1,5.049,7.106V13.4c0,.125.106,5.069,2.832,6.221a.665.665,0,0,1,.41.759.715.715,0,0,1-.708.535H15.363a3.728,3.728,0,0,1-1.074,1.957,4,4,0,0,1-5.577,0Z" transform="translate(0)" fill="#bfc5d2"/>
</svg>
