<svg xmlns="http://www.w3.org/2000/svg" xmlns:xlink="http://www.w3.org/1999/xlink" width="48" height="48" viewBox="0 0 48 48"><defs><style>.a{fill:#fff;}.b{opacity:0.15;}.c{clip-path:url(#a);}</style><clipPath id="a"><circle class="a" cx="24" cy="24" r="24"/></clipPath></defs><g transform="translate(-722.198 -201)"><g class="b" transform="translate(722.198 201)"><circle class="a" cx="24" cy="24" r="24"/></g><g transform="translate(731.97 122.187)"><g transform="translate(0 94.062)"><g transform="translate(0 0)"><path class="a" d="M26.252,101.632l-.731-2.924a.442.442,0,0,0,.35-.432V97.8a1.858,1.858,0,0,0-1.856-1.856h-3.33v-.972a.914.914,0,0,0-.913-.913H2.8a.914.914,0,0,0-.913.913v8.015a.442.442,0,1,0,.884,0V94.975a.029.029,0,0,1,.029-.029H19.771a.029.029,0,0,1,.029.029v8.015a.442.442,0,1,0,.884,0v-.5H25.9a1.446,1.446,0,0,1,1.373,1H25.9a.442.442,0,0,0-.442.442v.943a1.386,1.386,0,0,0,1.385,1.385h.5v1.945H26.188a2.8,2.8,0,0,0-5.291,0h-.213v-3.33a.442.442,0,1,0-.884,0v3.33h-9.17a2.8,2.8,0,0,0-5.291,0H2.8a.029.029,0,0,1-.029-.029V107.2H4.685a.442.442,0,1,0,0-.884H.442a.442.442,0,1,0,0,.884H1.886v.972a.914.914,0,0,0,.913.913H5.187c0,.01,0,.02,0,.029a2.8,2.8,0,0,0,5.6,0c0-.01,0-.02,0-.029h9.961c0,.01,0,.02,0,.029a2.8,2.8,0,0,0,5.6,0c0-.01,0-.02,0-.029h1.445a.442.442,0,0,0,.442-.442v-4.714A2.331,2.331,0,0,0,26.252,101.632Zm-5.567-4.8h3.33a.973.973,0,0,1,.972.972v.029h-4.3Zm0,4.773V98.718h3.927l.722,2.888H20.685Zm-12.7,9.429A1.915,1.915,0,1,1,9.9,109.119,1.917,1.917,0,0,1,7.985,111.034Zm15.558,0a1.915,1.915,0,1,1,1.915-1.915A1.917,1.917,0,0,1,23.543,111.034Zm3.8-5.657h-.5a.5.5,0,0,1-.5-.5v-.5h1v1Z" transform="translate(0 -94.062)"/></g></g><g transform="translate(7.072 108.206)"><g transform="translate(0 0)"><path class="a" d="M129.18,350.6a.913.913,0,1,0,.913.913A.914.914,0,0,0,129.18,350.6Z" transform="translate(-128.267 -350.597)"/></g></g><g transform="translate(22.63 108.206)"><g transform="translate(0 0)"><path class="a" d="M411.368,350.6a.913.913,0,1,0,.913.913A.914.914,0,0,0,411.368,350.6Z" transform="translate(-410.455 -350.597)"/></g></g><g transform="translate(11.315 106.32)"><g transform="translate(0 0)"><path class="a" d="M212.269,316.393h-6.6a.442.442,0,1,0,0,.884h6.6a.442.442,0,1,0,0-.884Z" transform="translate(-205.227 -316.393)"/></g></g><g transform="translate(0.943 104.434)"><g transform="translate(0 0)"><path class="a" d="M23.2,282.188H17.544a.442.442,0,1,0,0,.884H23.2a.442.442,0,0,0,0-.884Z" transform="translate(-17.102 -282.188)"/></g></g><g transform="translate(8.015 98.305)"><g transform="translate(0 0)"><path class="a" d="M152.725,171.152a.442.442,0,0,0-.625,0l-3.931,3.93-2.045-2.045a.442.442,0,0,0-.625.625l2.357,2.357a.442.442,0,0,0,.625,0l4.243-4.243A.442.442,0,0,0,152.725,171.152Z" transform="translate(-145.37 -171.023)"/></g></g></g></g></svg>