<svg xmlns="http://www.w3.org/2000/svg" xmlns:xlink="http://www.w3.org/1999/xlink" width="48" height="48" viewBox="0 0 48 48"><defs><style>.a,.d{fill:#fff;}.b{opacity:0.15;}.c{clip-path:url(#a);}.d{stroke:#fff;stroke-width:0.2px;}</style><clipPath id="a"><circle class="a" cx="24" cy="24" r="24"/></clipPath></defs><g transform="translate(-393.025 -201)"><g class="b" transform="translate(393.025 201)"><circle class="a" cx="24" cy="24" r="24"/></g><g transform="translate(393.078 217.118)"><g transform="translate(16.032 -0.001)"><g transform="translate(0 0)"><path class="d" d="M31.609,3.7,24,.024a.246.246,0,0,0-.214,0L16.171,3.7a.246.246,0,0,0-.139.221v8.925a.246.246,0,0,0,.139.221l7.612,3.675a.246.246,0,0,0,.214,0l7.612-3.675a.246.246,0,0,0,.139-.221V3.92A.246.246,0,0,0,31.609,3.7ZM23.89.518l7.047,3.4-2.043.986a.244.244,0,0,0-.042-.026l-7-3.379ZM21.3,1.779l7.037,3.4-1.441.7-7.034-3.4Zm7.2,3.863V8.214l-1.346.65V6.292Zm2.756,7.049-7.121,3.438V7.749l1.7-.82a.246.246,0,1,0-.214-.442l-1.731.836-.681-.329A.246.246,0,1,0,23,7.436l.649.313v8.379l-7.121-3.438V4.311l5.423,2.618a.246.246,0,0,0,.214-.442L16.842,3.92l2.44-1.178L26.66,6.3l0,0V9.255a.246.246,0,0,0,.352.221l1.837-.887a.246.246,0,0,0,.139-.221V5.4l2.265-1.093v8.379Z" transform="translate(-16.032 0.001)"/></g></g><g transform="translate(17.08 11.174)"><g transform="translate(0)"><path class="d" d="M49.518,341.825l-1.117-.539a.246.246,0,1,0-.214.442l1.117.539a.246.246,0,0,0,.214-.442Z" transform="translate(-48.048 -341.261)"/></g></g><g transform="translate(17.082 10.01)"><g transform="translate(0)"><path class="d" d="M50.592,306.75l-2.144-1.035a.246.246,0,1,0-.214.442l2.144,1.035a.246.246,0,0,0,.214-.442Z" transform="translate(-48.096 -305.69)"/></g></g></g></g></svg>