<svg xmlns="http://www.w3.org/2000/svg" xmlns:xlink="http://www.w3.org/1999/xlink" width="48" height="48" viewBox="0 0 48 48"><defs><style>.a{fill:#fff;}.b{opacity:0.15;}.c{clip-path:url(#a);}</style><clipPath id="a"><circle class="a" cx="24" cy="24" r="24"/></clipPath></defs><g transform="translate(-66.853 -201)"><g class="b" transform="translate(66.853 201)"><circle class="a" cx="24" cy="24" r="24"/></g><g transform="translate(29.939 215.944)"><g transform="translate(53.02)"><g transform="translate(0)"><path class="a" d="M68.12,15.714,67.269,4.991a1.34,1.34,0,0,0-1.33-1.232H64.258V3.683a3.683,3.683,0,1,0-7.367,0v.076H55.21A1.34,1.34,0,0,0,53.88,4.99l-.851,10.726a3.1,3.1,0,0,0,3.094,3.34h8.9a3.1,3.1,0,0,0,3.094-3.342ZM58.007,3.683a2.567,2.567,0,0,1,5.135,0v.076H58.007ZM66.484,17.3a1.966,1.966,0,0,1-1.457.637h-8.9A1.987,1.987,0,0,1,54.142,15.8l.851-10.726a.219.219,0,0,1,.217-.2h1.681V6.25a.558.558,0,1,0,1.116,0V4.875h5.135V6.25a.558.558,0,1,0,1.116,0V4.875h1.681a.219.219,0,0,1,.217.2L67.007,15.8A1.966,1.966,0,0,1,66.484,17.3Z" transform="translate(-53.02)"/></g></g><g transform="translate(57.897 9.301)"><path class="a" d="M189.244,250.056a.558.558,0,0,0-.789,0l-2.492,2.492L185,251.59a.558.558,0,1,0-.789.789l1.353,1.353a.558.558,0,0,0,.789,0l2.887-2.887A.558.558,0,0,0,189.244,250.056Z" transform="translate(-184.052 -249.893)"/></g></g></g></svg>